<svg xmlns="http://www.w3.org/2000/svg" viewBox="0 0 2332 1080">
  <!-- Logo completo ZÍA INTEGRACIÓN | símbolo pixel-exacto + wordmark (Poppins -> paths) -->
  <!-- Colores: dorado #A69140, gris #979899, rojo #EC3237. Acento de la Ó en rojo (como el original). -->
  <defs>
    <clipPath id="anillo">
      <path fill-rule="evenodd"
            d="M 1165.5 224.5 A 124.5 124.5 0 1 1 1165.49 224.5 Z
               M 1165.5 248.5 A 100.5 100.5 0 1 0 1165.49 248.5 Z"/>
    </clipPath>
  </defs>
  <g fill="#A69140">
    <rect x="1086.5" y="58"  width="26" height="291" rx="13"/>
    <rect x="1086.5" y="349" width="26" height="290" rx="13"/>
    <rect x="1130.5" y="1"   width="26" height="348" rx="13"/>
    <rect x="1130.5" y="349" width="26" height="347" rx="13"/>
    <rect x="1174"   y="1"   width="26" height="348" rx="13"/>
    <rect x="1174"   y="349" width="26" height="347" rx="13"/>
    <rect x="1217.5" y="58"  width="26" height="291" rx="13"/>
    <rect x="1217.5" y="349" width="26" height="290" rx="13"/>
  </g>
  <g fill="#979899">
    <rect x="873"    y="270.5" width="292.5" height="26" rx="13"/>
    <rect x="1165.5" y="270.5" width="292.5" height="26" rx="13"/>
    <rect x="816"    y="314.5" width="349.5" height="26" rx="13"/>
    <rect x="1165.5" y="314.5" width="349.5" height="26" rx="13"/>
    <rect x="816"    y="358.5" width="349.5" height="26" rx="13"/>
    <rect x="1165.5" y="358.5" width="349.5" height="26" rx="13"/>
    <rect x="873"    y="402.5" width="292.5" height="26" rx="13"/>
    <rect x="1165.5" y="402.5" width="292.5" height="26" rx="13"/>
  </g>
  <circle cx="1165.5" cy="349" r="100.5" fill="#000000"/>
  <circle cx="1165.5" cy="349" r="112.5" fill="none" stroke="#EC3237" stroke-width="24"/>
  <g stroke="#000000" stroke-width="16" stroke-linecap="butt" clip-path="url(#anillo)">
    <line x1="1224.3" y1="407.8" x2="1265.8" y2="449.3"/>
    <line x1="1106.7" y1="407.8" x2="1065.2" y2="449.3"/>
    <line x1="1106.7" y1="290.2" x2="1065.2" y2="248.7"/>
    <line x1="1224.3" y1="290.2" x2="1265.8" y2="248.7"/>
  </g>

  <!-- ===== WORDMARK "ZÍA INTEGRACIÓN" ===== -->
    <path transform="translate(15.58 940) scale(0.25600 -0.25600)" fill="#A69140" d="M244 140H546V0H50V130L350 562H50V702H546V572Z"/>
    <path transform="translate(172.16 940) scale(0.25600 -0.25600)" fill="#A69140" d="M233 702V0H62V702ZM264 843 23 742V860L264 976Z"/>
    <path transform="translate(251.68 940) scale(0.25600 -0.25600)" fill="#A69140" d="M499 124H237L195 0H16L270 702H468L722 0H541ZM455 256 368 513 282 256Z"/>
    <path transform="translate(444.35 940) scale(0.25600 -0.25600)" fill="#A69140" d=""/>
    <path transform="translate(502.62 940) scale(0.25600 -0.25600)" fill="#A69140" d="M233 702V0H62V702Z"/>
    <path transform="translate(582.14 940) scale(0.25600 -0.25600)" fill="#A69140" d="M690 0H519L233 433V0H62V702H233L519 267V702H690Z"/>
    <path transform="translate(778.65 940) scale(0.25600 -0.25600)" fill="#A69140" d="M567 702V565H381V0H210V565H24V702Z"/>
    <path transform="translate(933.95 940) scale(0.25600 -0.25600)" fill="#A69140" d="M233 565V423H462V291H233V137H492V0H62V702H492V565Z"/>
    <path transform="translate(1076.44 940) scale(0.25600 -0.25600)" fill="#979899" d="M528 480Q509 515 473.5 533.5Q438 552 390 552Q307 552 257.0 497.5Q207 443 207 352Q207 255 259.5 200.5Q312 146 404 146Q467 146 510.5 178.0Q554 210 574 270H357V396H729V237Q710 173 664.5 118.0Q619 63 549.0 29.0Q479 -5 391 -5Q287 -5 205.5 40.5Q124 86 78.5 167.0Q33 248 33 352Q33 456 78.5 537.5Q124 619 205.0 664.5Q286 710 390 710Q516 710 602.5 649.0Q689 588 717 480Z"/>
    <path transform="translate(1275.52 940) scale(0.25600 -0.25600)" fill="#A69140" d="M420 0 274 265H233V0H62V702H349Q432 702 490.5 673.0Q549 644 578.0 593.5Q607 543 607 481Q607 411 567.5 356.0Q528 301 451 278L613 0ZM233 386H339Q386 386 409.5 409.0Q433 432 433 474Q433 514 409.5 537.0Q386 560 339 560H233Z"/>
    <path transform="translate(1446.43 940) scale(0.25600 -0.25600)" fill="#A69140" d="M499 124H237L195 0H16L270 702H468L722 0H541ZM455 256 368 513 282 256Z"/>
    <path transform="translate(1639.10 940) scale(0.25600 -0.25600)" fill="#A69140" d="M386 710Q511 710 600.0 644.0Q689 578 719 464H531Q510 508 471.5 531.0Q433 554 384 554Q305 554 256.0 499.0Q207 444 207 352Q207 260 256.0 205.0Q305 150 384 150Q433 150 471.5 173.0Q510 196 531 240H719Q689 126 600.0 60.5Q511 -5 386 -5Q284 -5 203.5 40.5Q123 86 78.0 167.0Q33 248 33 352Q33 456 78.0 537.5Q123 619 203.5 664.5Q284 710 386 710Z"/>
    <path transform="translate(1838.17 940) scale(0.25600 -0.25600)" fill="#A69140" d="M233 702V0H62V702Z"/>
    <path transform="translate(1917.69 940) scale(0.25600 -0.25600)" fill="#A69140" d="M33 353Q33 456 81.5 538.0Q130 620 212.5 666.0Q295 712 394 712Q493 712 575.5 666.0Q658 620 705.5 538.0Q753 456 753 353Q753 250 705.0 167.5Q657 85 575.0 39.0Q493 -7 394 -7Q295 -7 212.5 39.0Q130 85 81.5 167.5Q33 250 33 353ZM579 353Q579 446 528.5 501.5Q478 557 394 557Q309 557 258.5 502.0Q208 447 208 353Q208 260 258.5 204.5Q309 149 394 149Q478 149 528.5 205.0Q579 261 579 353Z"/>
    <path transform="translate(1917.69 940) scale(0.25600 -0.25600)" fill="#EC3237" d="M510 843 269 742V860L510 976Z"/>
    <path transform="translate(2122.91 940) scale(0.25600 -0.25600)" fill="#A69140" d="M690 0H519L233 433V0H62V702H233L519 267V702H690Z"/>

  <!-- ===== TAGLINE "SEGURIDAD Y TECNOLOGÍA" ===== -->
    <path transform="translate(335.95 1050) scale(0.11100 -0.11100)" fill="#979899" d="M58 192H180Q184 147 215.5 118.0Q247 89 304 89Q363 89 396.0 117.5Q429 146 429 191Q429 226 408.5 248.0Q388 270 357.5 282.0Q327 294 273 308Q205 326 162.5 344.5Q120 363 90.0 402.0Q60 441 60 506Q60 566 90.0 611.0Q120 656 174.0 680.0Q228 704 299 704Q400 704 464.5 653.5Q529 603 536 515H410Q407 553 374.0 580.0Q341 607 287 607Q238 607 207.0 582.0Q176 557 176 510Q176 478 195.5 457.5Q215 437 245.0 425.0Q275 413 327 399Q396 380 439.5 361.0Q483 342 513.5 302.5Q544 263 544 197Q544 144 515.5 97.0Q487 50 432.5 21.5Q378 -7 304 -7Q234 -7 178.0 17.5Q122 42 90.0 87.0Q58 132 58 192Z"/>
    <path transform="translate(412.99 1050) scale(0.11100 -0.11100)" fill="#979899" d="M189 603V399H429V306H189V93H459V0H75V696H459V603Z"/>
    <path transform="translate(481.16 1050) scale(0.11100 -0.11100)" fill="#979899" d="M578 495Q551 547 503.0 573.5Q455 600 392 600Q323 600 269.0 569.0Q215 538 184.5 481.0Q154 424 154 349Q154 274 184.5 216.5Q215 159 269.0 128.0Q323 97 392 97Q485 97 543.0 149.0Q601 201 614 290H353V381H736V292Q725 211 678.5 143.0Q632 75 557.5 34.5Q483 -6 392 -6Q294 -6 213.0 39.5Q132 85 84.5 166.0Q37 247 37 349Q37 451 84.5 532.0Q132 613 213.5 658.5Q295 704 392 704Q503 704 589.5 649.5Q676 595 715 495Z"/>
    <path transform="translate(576.96 1050) scale(0.11100 -0.11100)" fill="#979899" d="M188 695V252Q188 173 229.5 133.0Q271 93 345 93Q420 93 461.5 133.0Q503 173 503 252V695H617V254Q617 169 580.0 110.0Q543 51 481.0 22.0Q419 -7 344 -7Q269 -7 207.5 22.0Q146 51 110.0 110.0Q74 169 74 254V695Z"/>
    <path transform="translate(663.55 1050) scale(0.11100 -0.11100)" fill="#979899" d="M436 0 276 278H189V0H75V695H315Q395 695 450.5 667.0Q506 639 533.5 592.0Q561 545 561 487Q561 419 521.5 363.5Q482 308 400 288L572 0ZM189 369H315Q379 369 411.5 401.0Q444 433 444 487Q444 541 412.0 571.5Q380 602 315 602H189Z"/>
    <path transform="translate(743.70 1050) scale(0.11100 -0.11100)" fill="#979899" d="M189 695V0H75V695Z"/>
    <path transform="translate(783.00 1050) scale(0.11100 -0.11100)" fill="#979899" d="M671 345Q671 239 625.5 161.0Q580 83 496.5 41.5Q413 0 302 0H75V695H302Q413 695 496.5 652.5Q580 610 625.5 530.5Q671 451 671 345ZM554 345Q554 466 489.0 534.0Q424 602 302 602H189V93H302Q424 93 489.0 159.0Q554 225 554 345Z"/>
    <path transform="translate(871.70 1050) scale(0.11100 -0.11100)" fill="#979899" d="M494 142H203L153 0H34L283 696H415L664 0H544ZM462 235 349 558 235 235Z"/>
    <path transform="translate(959.07 1050) scale(0.11100 -0.11100)" fill="#979899" d="M671 345Q671 239 625.5 161.0Q580 83 496.5 41.5Q413 0 302 0H75V695H302Q413 695 496.5 652.5Q580 610 625.5 530.5Q671 451 671 345ZM554 345Q554 466 489.0 534.0Q424 602 302 602H189V93H302Q424 93 489.0 159.0Q554 225 554 345Z"/>
    <path transform="translate(1047.77 1050) scale(0.11100 -0.11100)" fill="#979899" d=""/>
    <path transform="translate(1086.63 1050) scale(0.11100 -0.11100)" fill="#979899" d="M590 695 360 252V0H246V252L15 695H142L303 354L464 695Z"/>
    <path transform="translate(1163.78 1050) scale(0.11100 -0.11100)" fill="#979899" d=""/>
    <path transform="translate(1202.64 1050) scale(0.11100 -0.11100)" fill="#979899" d="M524 695V602H339V0H225V602H39V695Z"/>
    <path transform="translate(1275.25 1050) scale(0.11100 -0.11100)" fill="#979899" d="M189 603V399H429V306H189V93H459V0H75V696H459V603Z"/>
    <path transform="translate(1343.41 1050) scale(0.11100 -0.11100)" fill="#979899" d="M392 704Q503 704 589.5 649.5Q676 595 715 495H578Q551 550 503.0 577.0Q455 604 392 604Q323 604 269.0 573.0Q215 542 184.5 484.0Q154 426 154 349Q154 272 184.5 214.0Q215 156 269.0 124.5Q323 93 392 93Q455 93 503.0 120.0Q551 147 578 202H715Q676 102 589.5 48.0Q503 -6 392 -6Q294 -6 213.0 39.5Q132 85 84.5 166.0Q37 247 37 349Q37 451 84.5 532.0Q132 613 213.5 658.5Q295 704 392 704Z"/>
    <path transform="translate(1439.22 1050) scale(0.11100 -0.11100)" fill="#979899" d="M646 0H532L189 519V0H75V696H189L532 178V696H646Z"/>
    <path transform="translate(1529.25 1050) scale(0.11100 -0.11100)" fill="#979899" d="M37 349Q37 451 84.5 532.0Q132 613 213.5 658.5Q295 704 392 704Q490 704 571.5 658.5Q653 613 700.0 532.0Q747 451 747 349Q747 247 700.0 165.5Q653 84 571.5 38.5Q490 -7 392 -7Q295 -7 213.5 38.5Q132 84 84.5 165.5Q37 247 37 349ZM630 349Q630 426 599.5 484.0Q569 542 515.0 573.0Q461 604 392 604Q323 604 269.0 573.0Q215 542 184.5 484.0Q154 426 154 349Q154 272 184.5 213.5Q215 155 269.0 123.5Q323 92 392 92Q461 92 515.0 123.5Q569 155 599.5 213.5Q630 272 630 349Z"/>
    <path transform="translate(1626.27 1050) scale(0.11100 -0.11100)" fill="#979899" d="M189 92H424V0H75V695H189Z"/>
    <path transform="translate(1685.55 1050) scale(0.11100 -0.11100)" fill="#979899" d="M37 349Q37 451 84.5 532.0Q132 613 213.5 658.5Q295 704 392 704Q490 704 571.5 658.5Q653 613 700.0 532.0Q747 451 747 349Q747 247 700.0 165.5Q653 84 571.5 38.5Q490 -7 392 -7Q295 -7 213.5 38.5Q132 84 84.5 165.5Q37 247 37 349ZM630 349Q630 426 599.5 484.0Q569 542 515.0 573.0Q461 604 392 604Q323 604 269.0 573.0Q215 542 184.5 484.0Q154 426 154 349Q154 272 184.5 213.5Q215 155 269.0 123.5Q323 92 392 92Q461 92 515.0 123.5Q569 155 599.5 213.5Q630 272 630 349Z"/>
    <path transform="translate(1782.58 1050) scale(0.11100 -0.11100)" fill="#979899" d="M578 495Q551 547 503.0 573.5Q455 600 392 600Q323 600 269.0 569.0Q215 538 184.5 481.0Q154 424 154 349Q154 274 184.5 216.5Q215 159 269.0 128.0Q323 97 392 97Q485 97 543.0 149.0Q601 201 614 290H353V381H736V292Q725 211 678.5 143.0Q632 75 557.5 34.5Q483 -6 392 -6Q294 -6 213.0 39.5Q132 85 84.5 166.0Q37 247 37 349Q37 451 84.5 532.0Q132 613 213.5 658.5Q295 704 392 704Q503 704 589.5 649.5Q676 595 715 495Z"/>
    <path transform="translate(1878.38 1050) scale(0.11100 -0.11100)" fill="#979899" d="M189 695V0H75V695ZM235 844 14 735V819L235 941Z"/>
    <path transform="translate(1917.69 1050) scale(0.11100 -0.11100)" fill="#979899" d="M494 142H203L153 0H34L283 696H415L664 0H544ZM462 235 349 558 235 235Z"/>
</svg>
